<?xml version="1.0" encoding="utf-8"?>
<!-- Generator: Adobe Illustrator 25.2.3, SVG Export Plug-In . SVG Version: 6.00 Build 0)  -->
<svg version="1.1"
	 id="svg4156" xmlns:cc="http://creativecommons.org/ns#" xmlns:dc="http://purl.org/dc/elements/1.1/" xmlns:rdf="http://www.w3.org/1999/02/22-rdf-syntax-ns#" xmlns:svg="http://www.w3.org/2000/svg"
	 xmlns="http://www.w3.org/2000/svg" xmlns:xlink="http://www.w3.org/1999/xlink" x="0px" y="0px" viewBox="0 0 512 512"
	 style="enable-background:new 0 0 512 512;" xml:space="preserve" fill="#FFF">
<g>
	<ellipse cx="255" cy="182.3" rx="48.6" ry="50.2"/>
	<rect x="214.2" y="370.4" width="83.1" height="17.2"/>
	<path d="M256,21.7L37.9,99.5l33.3,288.4L256,490.3l184.9-102.4l33.3-288.4L256,21.7z M325.5,397.1
		c0,6.3-4.7,12.5-12.5,12.5H200.1c-6.3,0-12.5-4.7-12.5-12.5v-37.6c0-6.3,4.7-12.5,12.5-12.5H313c6.3,0,12.5,4.7,12.5,12.5V397.1z
		 M262.8,329.7c-1.6,0-1.6,1.6-1.6,1.6c-1.6,1.6-3.1,1.6-3.1,1.6s-3.1,0-3.1-1.6c0,0,0,0-1.6-1.6c-15.7-9.4-97.2-73.7-97.2-152.1
		c0-51.7,45.5-94.1,100.3-94.1c54.9,0,100.3,42.3,100.3,94.1C356.9,254.4,275.4,320.3,262.8,329.7z"/>
</g>
<g>
	<path d="M256,21.7v51.8v0.2v9.9c0.2,0,0.4,0,0.6,0c54.9,0,100.3,42.3,100.3,94.1c0,76.8-81.5,142.7-94.1,152.1
		c-1.6,0-1.6,1.6-1.6,1.6c-1.6,1.6-3.1,1.6-3.1,1.6s-1.2,0-2.1-0.4v14.5h57c6.3,0,12.5,4.7,12.5,12.5v37.6c0,6.3-4.7,12.5-12.5,12.5
		h-57v80.7l184.9-102.4l33.3-288.4L256,21.7z"/>
	<rect x="256" y="370.4" width="41.3" height="17.2"/>
	<path d="M303.6,182.3c0-27.9-21.4-49.6-47.6-50.1v100.2C282.2,231.9,303.6,210.2,303.6,182.3z"/>
</g>
</svg>
