<svg xmlns="http://www.w3.org/2000/svg" width="24" height="24" viewBox="0 0 24 24" fill="none">
  <path d="M11.9285 0.199707C5.34031 0.199707 0 5.48257 0 11.9999C0 18.5172 5.34031 23.8001 11.9285 23.8001C18.5167 23.8001 23.857 18.5172 23.857 11.9999C23.857 5.48257 18.5167 0.199707 11.9285 0.199707ZM17.5908 14.8935C13.5118 18.9287 6.22589 17.6411 6.22589 17.6411C6.22589 17.6411 4.91094 10.4469 9.0034 6.39845C11.271 4.15522 15.028 4.24814 17.403 6.58428C19.778 8.92042 19.8585 12.6503 17.5908 14.8935Z" fill="currentColor"></path>
  <path d="M13.2967 7.11475L12.1293 9.49071L9.72754 10.6455L12.1293 11.8003L13.2967 14.1763L14.4641 11.8003L16.8659 10.6455L14.4641 9.49071L13.2967 7.11475Z" fill="currentColor"></path>
</svg>