<?xml version="1.0" encoding="UTF-8" standalone="no"?>
<svg
   xmlns:dc="http://purl.org/dc/elements/1.1/"
   xmlns:cc="http://creativecommons.org/ns#"
   xmlns:rdf="http://www.w3.org/1999/02/22-rdf-syntax-ns#"
   xmlns:svg="http://www.w3.org/2000/svg"
   xmlns="http://www.w3.org/2000/svg"
   id="svg4156"
   version="1.1"
   viewBox="0 0 512 512"
   height="512"
   width="512">
  <metadata
     id="metadata4162">
    <rdf:RDF>
      <cc:Work
         rdf:about="">
        <dc:format>image/svg+xml</dc:format>
        <dc:type
           rdf:resource="http://purl.org/dc/dcmitype/StillImage" />
        <dc:title></dc:title>
        <cc:license
           rdf:resource="http://creativecommons.org/licenses/by/4.0/" />
      </cc:Work>
      <cc:License
         rdf:about="http://creativecommons.org/licenses/by/4.0/">
        <cc:permits
           rdf:resource="http://creativecommons.org/ns#Reproduction" />
        <cc:permits
           rdf:resource="http://creativecommons.org/ns#Distribution" />
        <cc:requires
           rdf:resource="http://creativecommons.org/ns#Notice" />
        <cc:requires
           rdf:resource="http://creativecommons.org/ns#Attribution" />
        <cc:permits
           rdf:resource="http://creativecommons.org/ns#DerivativeWorks" />
      </cc:License>
    </rdf:RDF>
  </metadata>
  <defs
     id="defs4160" />
  <path
     id="path4150"
     d="M 256 21.699219 L 256 99.830078 C 283.94245 99.829581 311.88532 110.48884 333.20312 131.80664 C 371.62113 170.22464 375.94546 242.56172 343.3418 286.03125 L 256 412.16992 L 256 490.30078 C 282.6 476.20078 308.90039 459.6 335.40039 444.5 L 433.80078 386.90039 L 468.40039 97.800781 C 397.60039 72.400781 326.8 47.099219 256 21.699219 z M 257.0625 171.90625 C 256.70591 171.90625 256.3541 171.92331 256 171.93359 L 256 243.95898 C 256.3541 243.96927 256.70591 243.98633 257.0625 243.98633 C 276.96826 243.98633 293.10352 227.85108 293.10352 207.94531 C 293.10352 188.03956 276.96826 171.90625 257.0625 171.90625 z "
     style="fill:#c3002fff" />
  <path
     id="path4152"
     d="M 256 21.699219 C 185.2 47.099219 114.39961 72.400781 43.599609 97.800781 L 78.199219 386.90039 L 176.59961 444.5 C 203.09961 459.6 229.4 476.20078 256 490.30078 L 256 412.16992 L 168.6582 286.03125 C 136.05455 242.56172 140.37887 170.22464 178.79688 131.80664 C 200.11669 110.48983 228.05885 99.830575 256 99.830078 L 256 21.699219 z M 256 171.93359 C 236.58745 172.49737 221.02344 188.39614 221.02344 207.94531 C 221.02344 227.49449 236.58745 243.39521 256 243.95898 L 256 171.93359 z "
     style="fill:#dd0031ff" />
</svg>
